<svg width="90" height="22" viewBox="0 0 90 22" fill="none" xmlns="http://www.w3.org/2000/svg">
<path d="M11 4.825C9.98333 4.825 9.24167 5.01667 8.775 5.4C8.325 5.78333 8.1 6.40833 8.1 7.275V21H3.45V7.725C3.45 6.39167 3.70833 5.25 4.225 4.3C4.75833 3.35 5.54167 2.625 6.575 2.125C7.625 1.60833 8.925 1.35 10.475 1.35C11.1083 1.35 11.6833 1.40833 12.2 1.525C12.7333 1.625 13.2583 1.76667 13.775 1.95V5.4C13.3417 5.21667 12.9 5.075 12.45 4.975C12 4.875 11.5167 4.825 11 4.825ZM0.525 11.35V7.875H13.575V11.35H0.525ZM15.925 6.55L18.225 7.025L20.55 6.55V21H15.925V6.55ZM18.225 5.25C17.4083 5.25 16.7417 5.04167 16.225 4.625C15.725 4.19167 15.475 3.625 15.475 2.925C15.475 2.20833 15.725 1.64167 16.225 1.225C16.7417 0.808333 17.4083 0.599999 18.225 0.599999C19.075 0.599999 19.75 0.808333 20.25 1.225C20.75 1.64167 21 2.20833 21 2.925C21 3.625 20.75 4.19167 20.25 4.625C19.75 5.04167 19.075 5.25 18.225 5.25ZM22.8709 6.75H27.4959L28.4209 12.3V21H23.7709V11.6L22.8709 6.75ZM33.7459 6.35C35.1126 6.35 36.2709 6.625 37.2209 7.175C38.1876 7.70833 38.9209 8.475 39.4209 9.475C39.9376 10.475 40.1959 11.6667 40.1959 13.05V21H35.5459V13.75C35.5459 12.5667 35.2542 11.675 34.6709 11.075C34.0876 10.4583 33.2542 10.15 32.1709 10.15C31.4042 10.15 30.7376 10.3167 30.1709 10.65C29.6209 10.9667 29.1876 11.425 28.8709 12.025C28.5709 12.6083 28.4209 13.3083 28.4209 14.125L26.9459 13.35C27.1292 11.8333 27.5376 10.5583 28.1709 9.525C28.8209 8.49167 29.6209 7.70833 30.5709 7.175C31.5376 6.625 32.5959 6.35 33.7459 6.35ZM53.8557 12.65V9.825L62.9557 21H57.1307L50.9057 12.975H53.1557L46.9057 21H41.1807L50.3307 9.85V12.625L41.7557 2.25H47.6307L53.3057 9.5H51.0307L56.6057 2.25H62.3807L53.8557 12.65Z" fill="white"/>
<path d="M77.1453 21L76.5203 15.825L77.1953 13.875L76.5203 11.95L77.1453 6.75H81.9703L81.0953 13.875L81.9703 21H77.1453ZM78.2953 13.875C78.0453 15.3917 77.5703 16.7167 76.8703 17.85C76.1703 18.9667 75.287 19.8417 74.2203 20.475C73.1536 21.0917 71.9536 21.4 70.6203 21.4C69.2203 21.4 67.987 21.0833 66.9203 20.45C65.8703 19.8167 65.0453 18.9417 64.4453 17.825C63.8453 16.6917 63.5453 15.375 63.5453 13.875C63.5453 12.375 63.8453 11.0667 64.4453 9.95C65.0453 8.81667 65.8703 7.93333 66.9203 7.3C67.987 6.66667 69.2203 6.35 70.6203 6.35C71.9536 6.35 73.1536 6.66667 74.2203 7.3C75.287 7.91667 76.1703 8.78333 76.8703 9.9C77.587 11.0167 78.062 12.3417 78.2953 13.875ZM68.2453 13.875C68.2453 14.6417 68.4036 15.325 68.7203 15.925C69.037 16.5083 69.4703 16.975 70.0203 17.325C70.587 17.6583 71.237 17.825 71.9703 17.825C72.7036 17.825 73.3953 17.6583 74.0453 17.325C74.712 16.975 75.2953 16.5083 75.7953 15.925C76.2953 15.325 76.6703 14.6417 76.9203 13.875C76.6703 13.1083 76.2953 12.4333 75.7953 11.85C75.2953 11.25 74.712 10.7833 74.0453 10.45C73.3953 10.1 72.7036 9.925 71.9703 9.925C71.237 9.925 70.587 10.1 70.0203 10.45C69.4703 10.7833 69.037 11.25 68.7203 11.85C68.4036 12.4333 68.2453 13.1083 68.2453 13.875ZM84.6055 6.55L86.9055 7.025L89.2305 6.55V21H84.6055V6.55ZM86.9305 5.25C86.1138 5.25 85.4471 5.04167 84.9305 4.625C84.4138 4.19167 84.1555 3.625 84.1555 2.925C84.1555 2.20833 84.4138 1.64167 84.9305 1.225C85.4471 0.808333 86.1138 0.599999 86.9305 0.599999C87.7638 0.599999 88.4305 0.808333 88.9305 1.225C89.4305 1.64167 89.6805 2.20833 89.6805 2.925C89.6805 3.625 89.4305 4.19167 88.9305 4.625C88.4305 5.04167 87.7638 5.25 86.9305 5.25Z" fill="#0BBDC8"/>
</svg>
